# xmcd CD database file
#
# Track frame offsets:
#	150
#	17333
#	33615
#	49334
#
# Disc length: 912 seconds
#
# Revision: 0
# Processed by: cddbd v1.5.2PL0 Copyright (c) Steve Scherf et al.
# Submitted via: CDex 1.76
#
DISCID=2a038e04
DTITLE=Majik Ninja Entertainment - MNE Sampler Juggalo Day 2016
DYEAR=2016
DGENRE=Horrorcore
TTITLE0=Blaze ya Dead Homie - They Call That Gangsta (feat. The R.O.C. and Lex The Hex Master)
TTITLE1=Lex The Hex Master - Ninjas
TTITLE2=Twiztid and Blaze Ya Dead Homie - Triple Threat
TTITLE3=The R.O.C. - The Chalmer
EXTD=YEAR: 2016
EXTT0=
EXTT1=
EXTT2=
EXTT3=
PLAYORDER=
